<svg version="1.1" id="Layer_1" xmlns="http://www.w3.org/2000/svg" xmlns:xlink="http://www.w3.org/1999/xlink" x="0px" y="0px"
	 width="100%" viewBox="0 0 500 500" enable-background="new 0 0 500 500" xml:space="preserve">
<path fill="#FFFFFF" opacity="1.000000" stroke="none" 
	d="
M223.000000,501.000000 
	C148.666687,501.000000 74.833366,501.000000 1.000040,501.000000 
	C1.000026,334.333405 1.000026,167.666779 1.000013,1.000129 
	C167.666565,1.000086 334.333130,1.000086 500.999756,1.000043 
	C500.999847,167.666534 500.999847,334.333069 500.999939,500.999817 
	C408.500000,501.000000 316.000000,501.000000 223.000000,501.000000 
M430.499817,293.813019 
	C430.342957,293.540588 430.186066,293.268158 429.088226,292.999695 
	C391.396362,292.959564 353.704498,292.919403 316.089691,292.165863 
	C319.117554,287.004486 313.133911,286.959045 311.584961,284.416962 
	C309.311401,280.685638 306.769562,282.261780 305.107056,285.017639 
	C303.420441,287.813354 302.315918,290.960266 300.230072,293.988647 
	C298.727966,294.920227 297.230682,295.859680 295.722870,296.781921 
	C291.915466,299.110596 288.266327,301.809601 284.208160,303.558319 
	C282.711304,304.203339 280.246033,302.601196 278.222473,302.023987 
	C279.553772,300.383514 280.821686,298.683716 282.261353,297.144592 
	C282.618011,296.763275 283.692627,297.118744 284.162842,296.767822 
	C287.165924,294.526733 290.746277,292.664459 292.886871,289.757263 
	C295.910309,285.651093 293.359070,281.890991 288.212463,282.012787 
	C282.395416,282.150421 279.294647,286.506958 275.532898,290.004364 
	C270.845184,294.362701 265.960999,298.540039 260.879211,302.426239 
	C259.291382,303.640503 256.788971,303.658813 254.705200,304.224609 
	C254.287201,303.770844 253.869217,303.317108 253.451233,302.863342 
	C254.728088,299.952911 255.778854,296.914978 257.332275,294.160522 
	C259.984039,289.458466 259.200958,286.715820 252.665268,283.020966 
	C248.779114,280.823975 247.146408,284.951385 246.130539,287.178925 
	C243.363953,293.245361 237.966690,294.702332 232.350632,296.936737 
	C232.194412,295.402832 232.014435,294.431335 232.011185,293.459259 
	C231.999969,290.109467 232.282471,286.673523 228.550705,284.814240 
	C224.496490,282.794250 221.007950,284.492554 217.909363,286.827179 
	C216.117020,288.177612 214.987076,290.378326 213.438431,292.087128 
	C210.215500,295.643311 207.153641,299.414185 203.505524,302.477478 
	C202.301392,303.488556 198.786285,303.424255 197.584290,302.390594 
	C195.481873,300.582611 197.383057,293.124603 199.636475,291.163391 
	C208.492279,283.456024 215.825317,274.464325 220.412628,263.642792 
	C221.649216,260.725677 221.893799,255.999161 220.316010,253.603058 
	C217.942780,249.999039 214.441208,253.598022 211.513931,254.765442 
	C211.204834,254.888733 210.899994,255.022751 210.123398,254.440948 
	C210.123398,244.030197 210.123398,233.619461 210.123398,223.166916 
	C226.035141,221.240707 228.871643,222.031967 232.263672,236.931915 
	C232.558884,238.228683 232.803436,239.538437 233.141068,240.823868 
	C234.405777,245.638916 235.337555,250.582565 237.082733,255.218796 
	C238.869385,259.965118 243.648697,262.153778 248.926529,261.522339 
	C253.968781,260.919037 257.178131,258.279266 258.297211,253.401993 
	C257.359161,253.962219 256.672546,254.261856 256.117798,254.720856 
	C251.082840,258.886505 248.493484,258.154724 246.589249,251.788757 
	C245.495178,248.131287 244.637100,244.395493 243.833679,240.660339 
	C241.897629,231.659500 239.126144,223.390305 227.616684,221.954437 
	C231.237244,220.388779 234.202042,219.379517 236.896744,217.883713 
	C242.253998,214.909988 245.731125,210.357681 246.983734,204.295837 
	C249.490677,192.163956 241.301132,182.085434 227.176453,181.122101 
	C215.237671,180.307831 203.219543,180.647507 191.235977,180.534378 
	C190.772736,180.529999 190.303787,181.128036 189.837509,181.445343 
	C189.358688,182.021164 188.879868,182.597000 188.401047,183.172821 
	C196.766678,181.709427 198.902069,185.672821 198.886810,191.723221 
	C198.838928,210.711594 198.891190,229.700226 198.853973,248.688644 
	C198.844772,253.380539 197.879471,257.425781 191.893219,257.571930 
	C191.153992,257.589996 190.433182,258.363556 189.703842,258.786987 
	C189.773331,259.167816 189.842804,259.548615 189.912292,259.929443 
	C195.276810,259.929443 200.641342,259.929443 205.729370,260.557404 
	C200.947693,269.800568 195.967575,278.948578 191.468704,288.327393 
	C189.243073,292.967224 181.328323,299.327515 176.068756,299.332092 
	C176.380676,297.051971 177.118225,294.770508 176.876617,292.597900 
	C176.606659,290.170624 175.914047,286.209869 174.574524,285.827545 
	C172.159119,285.138123 168.360367,285.762085 166.535339,287.396362 
	C164.030319,289.639587 162.165924,289.134460 160.008636,288.020538 
	C160.008636,288.020538 159.784897,288.232635 159.826889,287.525818 
	C157.802872,284.184845 156.778381,287.245758 155.468613,288.227631 
	C148.826401,293.207062 142.346680,298.423462 135.488831,303.084259 
	C133.021317,304.761261 129.665207,305.063690 127.310387,302.355743 
	C128.232346,300.290741 129.004700,298.560822 129.850449,296.988342 
	C129.850449,296.988342 129.833572,296.822723 130.591980,296.917084 
	C134.289810,295.144440 138.072891,293.521576 141.627808,291.497864 
	C142.560883,290.966675 142.786697,289.193085 143.337311,287.990051 
	C141.936188,287.644287 140.264420,286.632629 139.182556,287.072388 
	C135.275070,288.660553 131.566040,290.737000 127.377335,292.831512 
	C127.225906,291.219879 127.328217,289.885834 126.929840,288.723358 
	C126.497093,287.460632 125.626610,285.412964 124.897240,285.391357 
	C123.585709,285.352631 121.855507,286.251648 120.965004,287.315399 
	C114.610725,294.905762 108.393990,302.612427 102.211876,310.344757 
	C101.039978,311.810486 100.217575,313.555695 99.179810,315.033081 
	C99.179810,315.033081 99.183647,315.177490 98.431480,315.083069 
	C97.262199,315.582977 96.019829,315.960388 94.937645,316.606201 
	C91.970978,318.376740 89.237068,320.642029 86.102676,321.999542 
	C82.406891,323.600220 78.015343,326.059509 74.534286,322.310242 
	C70.955696,318.455933 73.656456,313.976837 75.467995,310.280334 
	C80.645615,299.715210 88.266289,291.084442 97.748260,284.097748 
	C99.204834,283.024536 100.764008,281.936249 101.815063,280.514404 
	C102.699951,279.317352 103.666992,277.309906 103.218307,276.239258 
	C102.754585,275.132721 100.678925,274.574707 99.208588,274.064331 
	C98.316803,273.754761 96.895615,274.393402 96.309677,273.898621 
	C95.049858,272.834778 93.000282,270.733948 93.327690,270.069366 
	C96.432335,263.767639 99.073578,256.949493 106.933075,254.175201 
	C107.857536,256.213135 108.781990,258.251068 109.706451,260.289001 
	C110.122223,260.117371 110.537994,259.945740 110.953766,259.774078 
	C110.953766,256.216614 110.953766,252.659119 111.378983,248.497375 
	C112.647598,247.973785 113.916222,247.450211 115.633827,246.741333 
	C116.529495,253.678955 115.603882,259.213837 111.482010,264.213531 
	C110.296677,265.651306 110.346512,268.107361 109.830025,270.096527 
	C112.138168,269.537842 115.233604,269.706268 116.574623,268.254333 
	C118.722069,265.929260 119.706398,262.529968 122.083412,259.711823 
	C126.996574,259.711823 131.909744,259.711823 136.822906,259.711823 
	C136.849350,259.268494 136.875809,258.825165 136.902267,258.381866 
	C136.034882,258.078613 135.186935,257.691437 134.297043,257.485474 
	C127.442734,255.899353 125.862450,253.647888 127.780220,246.948196 
	C129.193588,242.010590 131.064758,237.182800 133.079025,232.453903 
	C133.560654,231.323166 135.403580,230.117737 136.656174,230.078125 
	C143.810837,229.851990 150.979752,229.854782 158.134933,230.072342 
	C159.413803,230.111237 161.333405,231.236084 161.793777,232.343262 
	C164.280365,238.323395 166.491394,244.424423 168.612381,250.547867 
	C169.845001,254.106522 169.131195,256.790894 164.712769,257.332245 
	C163.493011,257.481689 162.337524,258.155670 161.152542,258.589020 
	C161.274994,258.875763 161.397446,259.162537 161.519913,259.449280 
	C170.257629,259.449280 178.995361,259.449280 187.733093,259.449280 
	C180.582642,256.053192 179.482956,249.080597 177.113708,243.038391 
	C169.469528,223.543655 161.939560,204.004166 154.349396,184.488205 
	C153.725647,182.884415 152.979797,181.328125 152.290695,179.749771 
	C151.817444,179.732620 151.344193,179.715469 150.870926,179.698318 
	C141.836090,202.792419 132.801254,225.886536 123.311646,248.442123 
	C121.737007,241.231750 121.417465,241.036667 110.984558,240.112152 
	C110.984558,237.781464 110.984558,235.450790 110.984558,233.120102 
	C110.271164,232.997192 109.557762,232.874268 108.844368,232.751358 
	C108.048386,236.173401 107.252403,239.595459 106.112564,243.548645 
	C105.035980,244.721909 103.989594,245.924667 102.877281,247.063019 
	C99.234253,250.791367 95.567223,254.496277 91.089554,258.249329 
	C77.803566,261.144043 67.983994,256.572693 62.918407,243.934555 
	C56.386806,227.638855 56.647930,211.004974 63.512344,194.838821 
	C67.957504,184.370163 76.306122,179.838333 86.533058,181.137100 
	C97.824783,182.571091 104.764877,189.095200 107.070656,200.438004 
	C107.335892,201.742783 107.473755,203.101883 107.955215,204.323669 
	C108.245476,205.060257 109.085533,205.580200 109.678520,206.197510 
	C110.091278,205.426285 110.846161,204.662613 110.863327,203.882675 
	C111.017319,196.888565 111.065613,189.891632 111.072479,182.895447 
	C111.073303,182.049652 110.644188,181.203430 110.414345,180.357407 
	C110.029579,180.146576 109.644821,179.935760 109.260063,179.724930 
	C109.020012,180.340820 108.772026,180.953735 108.541153,181.573044 
	C106.263351,187.682938 106.264137,187.683228 101.024109,184.272125 
	C86.136124,174.580521 66.687546,177.955963 55.942787,192.082626 
	C50.745007,198.916382 48.125320,206.741028 47.388409,215.178055 
	C44.811668,244.679718 60.947815,264.654327 88.884460,262.080444 
	C88.325653,263.633118 87.778397,265.190063 87.206039,266.737732 
	C84.664856,273.609131 85.519119,276.516357 91.664757,280.920715 
	C90.337639,282.019592 89.050735,283.006165 87.851959,284.090149 
	C77.993782,293.004333 69.443085,302.789368 66.402824,316.260559 
	C64.885887,322.982056 67.985977,329.634308 73.759193,329.711182 
	C79.213089,329.783813 85.213303,328.984924 90.025795,326.631805 
	C95.696938,323.858826 101.022003,319.605499 105.257072,314.882172 
	C109.622787,310.013092 116.876923,313.366913 120.659096,308.155029 
	C120.787636,307.977905 122.211143,308.543915 122.881889,308.988556 
	C127.516975,312.061371 132.272568,311.700531 137.037933,309.471558 
	C140.520493,307.842621 143.915848,306.027252 148.070770,303.931458 
	C147.662521,305.679688 147.500275,306.601257 147.231430,307.490570 
	C144.643692,316.050812 141.871597,324.561707 139.592682,333.202881 
	C139.188004,334.737335 140.812820,336.807037 141.500488,338.629608 
	C143.285568,337.837708 145.522339,337.464172 146.741333,336.147980 
	C148.262924,334.505096 148.990433,332.106720 149.983521,329.998108 
	C153.058594,323.468872 156.097015,316.922363 159.203140,310.268005 
	C164.110428,313.798004 165.114380,313.591064 169.549896,311.073608 
	C175.833649,307.507141 182.342529,304.337372 189.155563,300.789551 
	C190.149261,305.346710 191.124207,311.133453 197.235107,310.731476 
	C201.864349,310.427002 206.346329,307.883606 211.002289,306.299652 
	C214.749832,312.452393 220.807587,312.666443 226.672668,306.666718 
	C227.908798,305.402191 229.795364,304.705170 231.476700,303.959778 
	C234.202805,302.751129 237.096619,301.897278 239.754425,300.564240 
	C242.737747,299.067841 245.537567,297.205597 249.240860,295.015442 
	C248.765366,296.816315 248.653275,297.611389 248.350571,298.325684 
	C246.674942,302.279846 245.805267,306.796112 249.950729,309.032043 
	C252.837296,310.588959 257.227264,310.573120 260.567291,309.741089 
	C264.068817,308.868774 267.118683,306.183197 270.356049,304.295868 
	C278.753265,313.874237 293.271057,311.711121 299.786682,300.009216 
	C301.630615,299.111053 303.474548,298.212891 305.817627,297.071564 
	C305.627289,298.493073 305.555054,299.419586 305.373901,300.324341 
	C303.907471,307.648438 308.997559,313.170471 315.845001,310.704254 
	C324.489197,307.590851 331.864746,302.212280 337.950165,294.140381 
	C368.692230,294.104889 399.434296,294.069427 430.499817,293.813019 
M447.898102,190.769104 
	C443.525665,184.307251 437.036102,181.381195 429.632416,181.051025 
	C417.833527,180.524918 406.005737,180.637924 394.189667,180.540619 
	C393.738922,180.536926 393.283051,181.157654 392.829590,181.487411 
	C392.485016,181.968887 392.140442,182.450348 391.795898,182.931808 
	C399.112244,182.029083 401.911011,185.187851 401.887177,191.268387 
	C401.811401,210.587967 401.877197,229.908051 401.836182,249.227844 
	C401.826324,253.861649 400.444366,257.461670 394.853943,257.580475 
	C394.127930,257.595886 393.418427,258.388794 391.866333,259.325439 
	C402.372070,259.325439 411.789520,259.325439 421.207001,259.325439 
	C419.814392,257.799408 418.072998,257.772034 416.797089,256.987518 
	C415.264374,256.045105 413.037109,254.492813 412.994049,253.144455 
	C412.673492,243.106262 412.820068,233.053146 412.820068,222.487122 
	C416.221130,222.487122 419.357147,222.476440 422.493134,222.489380 
	C428.670044,222.514847 431.112152,224.174698 433.314453,230.061920 
	C434.067871,232.075928 434.574890,234.187424 435.115051,236.274918 
	C436.736816,242.542084 437.982605,248.931442 440.021576,255.057983 
	C441.713837,260.142609 446.197784,261.780670 451.251953,261.570831 
	C456.422058,261.356201 459.713654,258.760925 461.534058,253.402557 
	C460.368317,254.078918 459.556213,254.419739 458.899353,254.952148 
	C454.257721,258.714264 451.651581,258.053406 449.824738,252.427399 
	C448.799988,249.271515 447.927338,246.048569 447.250580,242.800751 
	C445.254791,233.222656 443.300842,223.683151 430.092865,221.794861 
	C447.876984,216.212128 454.241180,204.837418 447.898102,190.769104 
M269.185760,234.499115 
	C269.169281,239.663910 269.107666,244.829056 269.150360,249.993362 
	C269.185303,254.221985 267.800507,257.109253 263.036163,257.418610 
	C262.010406,257.485229 261.027618,258.214294 260.025055,258.638214 
	C260.138000,258.969879 260.250946,259.301514 260.363892,259.633179 
	C279.683441,259.633179 299.002960,259.633179 317.809937,259.633179 
	C317.809937,252.045883 317.809937,244.835373 317.809937,237.624847 
	C317.310913,237.529892 316.811890,237.434937 316.312866,237.339981 
	C315.848236,238.800949 315.199280,240.230972 314.948090,241.727768 
	C312.908020,253.883347 309.310822,257.049835 297.114136,257.269104 
	C295.948151,257.290070 294.781616,257.279846 293.615326,257.280914 
	C279.894043,257.293365 279.893646,257.293243 279.891876,243.499741 
	C279.890930,236.077240 279.891693,228.654739 279.891693,219.969803 
	C285.358643,221.304596 290.849091,221.147888 293.863312,223.802643 
	C296.870789,226.451477 297.397186,231.917297 299.011322,236.148117 
	C299.241974,236.058289 299.472656,235.968460 299.703308,235.878632 
	C299.703308,225.271088 299.703308,214.663528 299.703308,204.055984 
	C296.972687,208.075836 296.237213,212.928619 293.569153,216.210114 
	C290.293640,220.238770 284.872131,218.827316 279.986969,218.761276 
	C279.986969,208.493698 279.985260,198.844696 279.987854,189.195709 
	C279.988892,185.299713 282.124939,183.331787 285.838043,183.177765 
	C290.162720,182.998352 294.500641,182.972153 298.828552,183.069397 
	C307.792328,183.270844 310.486938,185.618271 312.264008,194.526825 
	C312.556702,195.994110 312.610504,197.530762 313.081757,198.932129 
	C313.343994,199.711975 314.240234,200.278641 315.734314,201.900574 
	C315.734314,193.876480 315.734314,187.324951 315.734314,181.022949 
	C297.049500,181.022949 278.662720,181.022949 260.275940,181.022949 
	C260.307922,182.301041 260.715393,182.610291 261.171814,182.725235 
	C269.070221,184.714325 269.149628,184.755341 269.171997,193.012482 
	C269.208588,206.508026 269.184387,220.003769 269.185760,234.499115 
M335.525665,239.492676 
	C335.518707,242.492126 335.470917,245.492172 335.513977,248.490906 
	C335.585846,253.497391 334.511810,257.507904 328.321747,257.644989 
	C327.678528,257.659210 327.055603,258.587646 325.629730,259.724731 
	C345.951752,259.724731 365.167023,259.724731 383.897888,259.724731 
	C383.897888,252.157181 383.897888,244.884613 383.897888,237.612030 
	C383.357056,237.556534 382.816223,237.501022 382.275391,237.445526 
	C381.826202,239.367981 381.292694,241.275223 380.942261,243.215530 
	C379.362488,251.962234 376.168152,256.171570 369.346863,256.825592 
	C363.403931,257.395416 357.342346,257.392761 351.398285,256.883453 
	C349.595551,256.728973 346.617188,254.104599 346.549957,252.511368 
	C346.110931,242.109268 346.324188,231.679642 346.324188,221.098404 
	C348.567688,221.098404 350.397217,221.035629 352.221252,221.109283 
	C360.051056,221.425461 361.916229,223.090302 363.378387,230.973267 
	C363.590881,232.119095 363.595276,233.355362 364.060791,234.384796 
	C364.389374,235.111404 365.334747,235.559082 366.118011,236.228012 
	C366.118011,225.053574 366.118011,214.565643 366.118011,204.077713 
	C365.716492,204.002167 365.314972,203.926605 364.913452,203.851059 
	C363.253448,208.081985 362.466309,213.038635 359.707855,216.356201 
	C356.417572,220.313324 350.965851,218.898071 346.062164,218.713791 
	C346.062164,208.855484 345.929626,199.535004 346.112396,190.220718 
	C346.220001,184.737640 347.898987,183.293716 353.520996,183.067657 
	C356.515930,182.947220 359.518982,183.012955 362.518341,183.020630 
	C374.719513,183.051880 377.083374,185.142471 379.092987,197.374557 
	C379.295135,198.604919 380.166412,199.725342 380.727173,200.896790 
	C381.145142,200.750641 381.563110,200.604477 381.981079,200.458328 
	C381.981079,193.889816 381.981079,187.321320 381.981079,180.999146 
	C363.388397,180.999146 344.975037,180.999146 326.561676,180.999146 
	C326.151031,181.424026 325.740356,181.848892 325.329712,182.273773 
	C338.517426,182.498032 335.335175,191.556412 335.457367,198.503433 
	C335.691711,211.830292 335.525940,225.164185 335.525665,239.492676 
z"/>
<path fill="#F1EDF4" opacity="1.000000" stroke="none" 
	d="
M121.182373,259.584717 
	C119.706398,262.529968 118.722069,265.929260 116.574623,268.254333 
	C115.233604,269.706268 112.138168,269.537842 109.830032,270.096558 
	C110.346512,268.107361 110.296677,265.651306 111.482010,264.213531 
	C115.603882,259.213837 116.529495,253.678955 115.633827,246.741333 
	C113.916222,247.450211 112.647598,247.973785 110.841476,248.790894 
	C109.886482,249.073257 109.468987,249.062119 108.904816,248.693710 
	C111.347099,247.291229 113.936081,246.246017 116.525055,245.200790 
	C117.147659,247.912277 118.816002,250.903931 118.179909,253.278198 
	C116.760910,258.574615 114.191376,263.562836 111.668655,269.703796 
	C113.683121,267.712585 115.763885,266.482361 116.579430,264.679718 
	C118.341621,260.784698 120.037079,256.678650 120.629730,252.498703 
	C121.027435,249.693680 120.397148,245.361282 118.549942,244.017624 
	C116.788155,242.736145 112.418945,243.640472 109.951912,244.978073 
	C100.951416,249.858078 94.391251,257.334320 89.780510,266.439514 
	C85.663116,274.570435 87.517014,277.678925 96.546432,278.258606 
	C96.790695,278.274261 97.014641,278.606323 98.154671,279.507507 
	C96.939743,280.295105 95.839966,281.008026 94.421890,281.845612 
	C92.943253,283.029480 91.782913,284.088715 90.622574,285.147980 
	C90.946632,285.484558 91.270699,285.821136 91.594757,286.157715 
	C92.904037,284.957977 94.213318,283.758270 95.852081,282.443085 
	C97.971992,280.716766 99.762428,279.105927 101.552864,277.495056 
	C101.289139,277.072662 101.025421,276.650238 100.761696,276.227814 
	C99.151375,276.119568 97.535522,276.063507 95.931770,275.893341 
	C90.926025,275.362122 88.848114,272.749329 91.552803,268.588776 
	C96.019012,261.718384 101.625771,255.585526 106.844353,249.217667 
	C107.164925,248.826492 108.292747,249.096893 109.024216,249.399673 
	C108.090401,251.119339 107.177345,252.498825 106.264282,253.878296 
	C99.073578,256.949493 96.432335,263.767639 93.327690,270.069366 
	C93.000282,270.733948 95.049858,272.834778 96.309677,273.898621 
	C96.895615,274.393402 98.316803,273.754761 99.208588,274.064331 
	C100.678925,274.574707 102.754585,275.132721 103.218307,276.239258 
	C103.666992,277.309906 102.699951,279.317352 101.815063,280.514404 
	C100.764008,281.936249 99.204834,283.024536 97.748260,284.097748 
	C88.266289,291.084442 80.645615,299.715210 75.467995,310.280334 
	C73.656456,313.976837 70.955696,318.455933 74.534286,322.310242 
	C78.015343,326.059509 82.406891,323.600220 86.102676,321.999542 
	C89.237068,320.642029 91.970978,318.376740 94.937645,316.606201 
	C96.019829,315.960388 97.262199,315.582977 98.686844,315.396301 
	C98.487259,316.339325 98.032295,316.969116 97.372009,317.778717 
	C97.171074,318.193787 97.175461,318.429016 97.179855,318.664276 
	C97.532410,318.526886 97.884956,318.389496 98.534859,318.152649 
	C99.696785,317.176819 100.561348,316.300476 101.618729,315.288116 
	C102.067642,314.958374 102.274170,314.721436 102.714020,314.331787 
	C103.192230,313.872833 103.387566,313.523407 103.582901,313.174011 
	C102.990494,313.388214 102.398087,313.602448 101.592484,313.925385 
	C101.108818,314.220947 100.907295,314.464752 100.516327,314.836212 
	C99.916588,314.995239 99.575249,315.083588 99.233917,315.171936 
	C100.217575,313.555695 101.039978,311.810486 102.211876,310.344757 
	C108.393990,302.612427 114.610725,294.905762 120.965004,287.315399 
	C121.855507,286.251648 123.585709,285.352631 124.897240,285.391357 
	C125.626610,285.412964 126.497093,287.460632 126.929840,288.723358 
	C127.328217,289.885834 127.225906,291.219879 127.377335,292.831512 
	C131.566040,290.737000 135.275070,288.660553 139.182556,287.072388 
	C140.264420,286.632629 141.936188,287.644287 143.337311,287.990051 
	C142.786697,289.193085 142.560883,290.966675 141.627808,291.497864 
	C138.072891,293.521576 134.289810,295.144440 130.348175,296.606018 
	C130.813080,295.605164 131.521820,294.915405 132.453903,294.130310 
	C132.977966,293.887817 133.213791,293.670319 133.697311,293.307983 
	C135.060562,292.550629 136.111176,291.867737 137.498199,291.143219 
	C138.734741,290.622070 139.634857,290.142548 140.534988,289.663055 
	C140.351532,289.361023 140.168076,289.059021 139.984619,288.756989 
	C138.894608,289.387238 137.804581,290.017517 136.403839,290.726929 
	C134.979904,291.455750 133.866714,292.105408 132.529999,292.849243 
	C132.003357,293.084717 131.764465,293.297943 131.260849,293.668335 
	C128.933411,295.155518 126.934883,296.557465 124.570915,297.782898 
	C124.205475,294.411316 124.205475,291.216248 124.205475,288.021210 
	C123.949371,287.903900 123.693260,287.786591 123.437157,287.669281 
	C122.259056,289.717865 121.080956,291.766449 119.664803,293.915771 
	C119.247864,294.303772 119.068985,294.591034 118.649429,295.022461 
	C118.170921,295.667084 117.933098,296.167511 117.482742,296.792542 
	C117.007294,297.136444 116.831566,297.411469 116.531784,297.868591 
	C116.061394,298.218811 115.894905,298.497925 115.606583,298.947113 
	C115.130783,299.277344 114.963326,299.550323 114.648987,300.021179 
	C114.155151,300.649780 113.902023,301.138062 113.446945,301.760071 
	C113.002289,302.114563 112.805466,302.370636 112.385666,302.781372 
	C111.660866,303.518860 111.204933,304.136932 110.542038,304.877502 
	C110.081055,305.211029 109.899742,305.472473 109.576385,305.899597 
	C109.102676,306.226990 108.921646,306.492340 108.603928,306.925690 
	C108.129005,307.250641 107.946510,307.514526 107.625549,307.944031 
	C107.143806,308.260071 106.956490,308.520538 106.627953,308.950653 
	C106.135170,309.268646 105.946320,309.533447 105.632347,310.009583 
	C105.431854,310.400024 105.441010,310.639374 105.450150,310.878723 
	C105.767876,310.727509 106.085594,310.576263 106.629761,310.327850 
	C107.134689,310.032959 107.326630,309.771698 107.633156,309.319824 
	C108.105469,308.999359 108.299385,308.746613 108.613541,308.302185 
	C109.074142,307.971497 109.268959,307.720184 109.593582,307.280029 
	C110.053734,306.940277 110.245338,306.683807 110.561371,306.233643 
	C110.995071,305.870422 111.183617,305.611603 111.591805,305.194031 
	C112.307472,304.443817 112.753189,303.815704 113.408714,303.066376 
	C113.875725,302.728851 114.043289,302.457245 114.360291,301.983704 
	C114.841621,301.340027 115.083893,300.842957 115.530396,300.213806 
	C115.977356,299.856781 116.163048,299.591858 116.505951,299.167633 
	C116.955406,298.810852 117.118248,298.531250 117.428268,298.095154 
	C117.904579,297.752197 118.063156,297.468658 118.359268,296.987396 
	C118.826012,296.352173 119.057060,295.859833 119.498734,295.268219 
	C119.709358,295.168976 120.015114,294.815033 120.339867,295.043274 
	C121.915321,299.200500 120.258011,301.872437 117.153435,304.185699 
	C115.384941,305.503418 113.999535,307.335327 112.441620,308.935699 
	C112.870781,309.340820 113.299950,309.745941 113.729111,310.151062 
	C116.225845,307.890869 118.722572,305.630676 121.228554,303.362122 
	C127.662346,311.539215 143.039490,309.058014 148.081436,298.543457 
	C145.455917,300.191681 143.547195,301.889282 141.316925,302.680481 
	C137.334076,304.093475 133.184006,305.699188 129.053955,305.849060 
	C124.804062,306.003326 123.449448,302.234314 126.253120,298.808105 
	C127.626816,298.073700 128.701935,297.452301 129.777054,296.830902 
	C129.004700,298.560822 128.232346,300.290741 127.310387,302.355743 
	C129.665207,305.063690 133.021317,304.761261 135.488831,303.084259 
	C142.346680,298.423462 148.826401,293.207062 155.468613,288.227631 
	C156.778381,287.245758 157.802872,284.184845 159.486267,287.905334 
	C155.930893,291.376648 152.716141,294.468414 149.287109,297.752136 
	C149.088333,298.196777 149.103851,298.449524 149.119354,298.702209 
	C149.492737,298.552490 149.866135,298.402771 150.493134,298.177612 
	C151.075180,297.975250 151.403625,297.848328 151.911835,297.899841 
	C152.219193,298.188873 152.346786,298.299469 152.438995,298.785217 
	C149.072922,309.164642 145.636078,319.135681 142.489990,329.197662 
	C141.750397,331.563019 141.992462,334.235321 141.782928,336.766388 
	C142.367004,336.901672 142.951096,337.036957 143.535187,337.172241 
	C144.401825,335.527618 145.268448,333.882996 146.382172,331.986084 
	C148.716873,327.144470 150.804489,322.555176 153.074249,317.665375 
	C158.331268,307.705872 162.477112,297.431091 171.095993,290.031036 
	C171.404236,298.018616 170.381805,305.325623 162.376923,309.785095 
	C166.463043,311.168671 179.997711,304.685181 183.853058,299.606171 
	C179.463943,301.747192 175.730591,303.568298 171.117584,305.818512 
	C172.434952,301.412842 173.869705,298.189819 174.242493,294.848358 
	C174.519699,292.363922 173.420502,289.725952 172.934326,287.156342 
	C170.671265,288.282043 168.366623,289.334290 166.170288,290.577850 
	C165.505554,290.954224 165.039948,291.806519 164.653885,292.531677 
	C160.367126,300.584351 156.113937,308.654846 151.604950,316.976440 
	C149.269196,320.431732 147.180176,323.631104 145.090179,326.468719 
	C146.274536,322.846802 147.393021,319.560455 148.657867,316.331421 
	C152.333099,306.948822 156.067017,297.589264 159.777908,288.220642 
	C162.165924,289.134460 164.030319,289.639587 166.535339,287.396362 
	C168.360367,285.762085 172.159119,285.138123 174.574524,285.827545 
	C175.914047,286.209869 176.606659,290.170624 176.876617,292.597900 
	C177.118225,294.770508 176.380676,297.051971 176.068756,299.332092 
	C181.328323,299.327515 189.243073,292.967224 191.468704,288.327393 
	C195.967575,278.948578 200.947693,269.800568 206.111053,260.049500 
	C207.859543,258.078339 209.226349,256.615051 210.593170,255.151764 
	C210.899994,255.022751 211.204834,254.888733 211.513931,254.765442 
	C214.441208,253.598022 217.942780,249.999039 220.316010,253.603058 
	C221.893799,255.999161 221.649216,260.725677 220.412628,263.642792 
	C215.825317,274.464325 208.492279,283.456024 199.636475,291.163391 
	C197.383057,293.124603 195.481873,300.582611 197.584290,302.390594 
	C198.786285,303.424255 202.301392,303.488556 203.505524,302.477478 
	C207.153641,299.414185 210.215500,295.643311 213.438431,292.087128 
	C214.987076,290.378326 216.117020,288.177612 217.909363,286.827179 
	C221.007950,284.492554 224.496490,282.794250 228.550705,284.814240 
	C232.282471,286.673523 231.999969,290.109467 232.011185,293.459259 
	C232.014435,294.431335 232.194412,295.402832 232.350632,296.936737 
	C237.966690,294.702332 243.363953,293.245361 246.130539,287.178925 
	C247.146408,284.951385 248.779114,280.823975 252.665268,283.020966 
	C259.200958,286.715820 259.984039,289.458466 257.332275,294.160522 
	C255.778854,296.914978 254.728088,299.952911 253.451233,302.863342 
	C253.869217,303.317108 254.287201,303.770844 254.705200,304.224609 
	C256.788971,303.658813 259.291382,303.640503 260.879211,302.426239 
	C265.960999,298.540039 270.845184,294.362701 275.532898,290.004364 
	C279.294647,286.506958 282.395416,282.150421 288.212463,282.012787 
	C293.359070,281.890991 295.910309,285.651093 292.886871,289.757263 
	C290.746277,292.664459 287.165924,294.526733 284.162842,296.767822 
	C283.692627,297.118744 282.618011,296.763275 282.261353,297.144592 
	C280.821686,298.683716 279.553772,300.383514 278.222473,302.023987 
	C280.246033,302.601196 282.711304,304.203339 284.208160,303.558319 
	C288.266327,301.809601 291.915466,299.110596 295.722870,296.781921 
	C297.230682,295.859680 298.727966,294.920227 300.667725,294.059326 
	C301.105377,294.130005 301.253113,294.307617 301.061096,294.547180 
	C299.895782,295.846985 298.922455,296.907227 297.712067,298.086914 
	C297.141907,298.615051 296.808838,299.023773 296.231476,299.543457 
	C295.573517,300.009766 295.159851,300.365112 294.418030,300.837524 
	C290.182587,302.666565 286.388306,304.757812 282.331055,305.966248 
	C279.277710,306.875702 276.527588,305.338898 276.256317,301.812714 
	C276.006165,298.560608 276.526581,295.386261 280.959778,295.047089 
	C282.415680,294.935669 284.186035,294.708099 285.195038,293.826691 
	C287.591278,291.733521 289.695831,289.279541 291.686584,286.786377 
	C291.910553,286.505951 290.402802,284.172455 290.111755,284.254700 
	C287.183655,285.082306 283.831238,285.586761 281.591400,287.405396 
	C277.889862,290.410797 274.921814,294.319550 271.351868,297.948700 
	C269.863892,299.180847 268.668701,300.311951 267.142212,301.558838 
	C264.147308,303.020081 261.590607,304.710663 258.779938,305.581055 
	C257.104156,306.100006 254.377502,305.993988 253.319489,304.953064 
	C252.281693,303.932007 252.189636,301.201813 252.689987,299.521790 
	C253.714523,296.081787 255.413971,292.842773 256.971405,289.203461 
	C254.925766,289.048035 253.165436,288.914307 251.191650,288.764374 
	C251.340210,287.498596 251.476074,286.340881 251.611954,285.183167 
	C251.167511,284.999115 250.723068,284.815094 250.278610,284.631042 
	C249.136032,286.849518 247.993439,289.067993 246.690308,291.598175 
	C249.284531,291.886414 250.986084,292.075439 253.018326,292.301239 
	C252.218597,294.102448 251.534821,295.423065 251.041718,296.811462 
	C250.488083,298.370392 249.971085,299.965729 249.675247,301.588440 
	C248.694809,306.966217 251.992722,310.359985 257.112396,308.551880 
	C261.075470,307.152313 264.572205,304.432312 268.572357,302.171967 
	C270.272461,300.707123 271.676453,299.369629 273.410706,298.257507 
	C274.016357,308.692505 278.225403,311.429169 287.438538,307.051849 
	C290.350830,305.668182 292.852112,303.419403 295.782349,301.452972 
	C296.423523,300.975861 296.823883,300.612305 297.476227,300.174957 
	C298.051575,299.968628 298.374939,299.836121 298.789673,299.793701 
	C298.881042,299.883820 299.063263,300.064514 299.063263,300.064514 
	C293.271057,311.711121 278.753265,313.874237 270.356049,304.295868 
	C267.118683,306.183197 264.068817,308.868774 260.567291,309.741089 
	C257.227264,310.573120 252.837296,310.588959 249.950729,309.032043 
	C245.805267,306.796112 246.674942,302.279846 248.350571,298.325684 
	C248.653275,297.611389 248.765366,296.816315 249.240860,295.015442 
	C245.537567,297.205597 242.737747,299.067841 239.754425,300.564240 
	C237.096619,301.897278 234.202805,302.751129 231.476700,303.959778 
	C229.795364,304.705170 227.908798,305.402191 226.672668,306.666718 
	C220.807587,312.666443 214.749832,312.452393 211.002289,306.299652 
	C206.346329,307.883606 201.864349,310.427002 197.235107,310.731476 
	C191.124207,311.133453 190.149261,305.346710 189.155563,300.789551 
	C182.342529,304.337372 175.833649,307.507141 169.549896,311.073608 
	C165.114380,313.591064 164.110428,313.798004 159.203140,310.268005 
	C156.097015,316.922363 153.058594,323.468872 149.983521,329.998108 
	C148.990433,332.106720 148.262924,334.505096 146.741333,336.147980 
	C145.522339,337.464172 143.285568,337.837708 141.500488,338.629578 
	C140.812820,336.807037 139.188004,334.737335 139.592682,333.202881 
	C141.871597,324.561707 144.643692,316.050812 147.231430,307.490570 
	C147.500275,306.601257 147.662521,305.679688 148.070770,303.931458 
	C143.915848,306.027252 140.520493,307.842621 137.037933,309.471558 
	C132.272568,311.700531 127.516975,312.061371 122.881889,308.988556 
	C122.211143,308.543915 120.787636,307.977905 120.659096,308.155029 
	C116.876923,313.366913 109.622787,310.013092 105.257072,314.882172 
	C101.022003,319.605499 95.696938,323.858826 90.025795,326.631805 
	C85.213303,328.984924 79.213089,329.783813 73.759193,329.711182 
	C67.985977,329.634308 64.885887,322.982056 66.402824,316.260559 
	C69.443085,302.789368 77.993782,293.004333 87.851959,284.090149 
	C89.050735,283.006165 90.337639,282.019592 91.664757,280.920715 
	C85.519119,276.516357 84.664856,273.609131 87.206039,266.737732 
	C87.778397,265.190063 88.325653,263.633118 89.116394,261.551270 
	C90.202026,260.084808 91.055725,259.147491 91.909431,258.210205 
	C95.567223,254.496277 99.234253,250.791367 102.877281,247.063019 
	C103.989594,245.924667 105.035980,244.721909 106.641327,243.486435 
	C108.482010,242.612961 109.793938,241.801697 111.105865,240.990433 
	C121.417465,241.036667 121.737007,241.231750 123.489212,249.078674 
	C122.838638,253.005051 122.010506,256.294891 121.182373,259.584717 
M92.900810,320.748688 
	C92.273628,321.304199 91.646454,321.859711 91.019272,322.415222 
	C91.229919,322.636017 91.440575,322.856842 91.651230,323.077637 
	C92.512222,322.468262 93.373215,321.858917 94.826744,321.035645 
	C95.110123,320.479401 95.393494,319.923157 95.676880,319.366943 
	C94.964699,319.769257 94.252518,320.171600 92.900810,320.748688 
M212.311600,257.720856 
	C211.694336,258.150177 211.077072,258.579498 210.320511,259.170898 
	C210.320511,259.170898 210.008545,259.460510 209.504410,259.907257 
	C208.687195,260.947815 207.869995,261.988373 206.521957,263.438141 
	C205.294083,265.208862 203.880478,266.880035 202.869278,268.766907 
	C197.411118,278.951813 191.292755,288.927155 191.857712,301.172607 
	C192.021103,304.714325 192.829742,307.853607 196.765198,308.877045 
	C199.989853,309.715607 204.369843,307.460358 206.219543,304.233673 
	C195.634399,307.535095 192.881073,305.137421 195.052567,294.294983 
	C195.349045,292.814545 196.435455,291.396545 197.430634,290.172913 
	C199.182831,288.018433 201.146912,286.036285 203.002502,284.002228 
	C203.002502,284.002228 202.982162,284.021881 203.624207,283.907379 
	C204.758789,282.624786 205.893387,281.342194 207.609970,279.722809 
	C211.616135,273.259888 215.813416,266.901886 219.466492,260.245178 
	C220.193283,258.920868 218.836853,256.453278 218.441071,254.512909 
	C216.623413,255.684280 214.805771,256.855682 213.000092,257.998169 
	C213.000092,257.998169 213.030746,257.991699 212.311600,257.720856 
M84.652191,326.642853 
	C85.824623,326.075104 86.997055,325.507385 88.169479,324.939667 
	C88.016502,324.574921 87.863525,324.210205 87.710548,323.845459 
	C86.466461,324.289429 85.222382,324.733398 83.187965,325.250763 
	C79.744537,324.849152 74.847618,325.661163 73.235497,323.730438 
	C71.335098,321.454468 71.065163,316.332458 72.249695,313.284363 
	C74.491547,307.515503 78.005844,302.162964 81.511215,296.989624 
	C84.025375,293.279175 87.385086,290.141663 91.029305,285.995697 
	C81.384514,289.805725 67.744812,310.540436 68.196907,319.501770 
	C68.461250,324.741425 71.476143,327.935303 76.667366,327.947815 
	C79.098953,327.953674 81.532379,327.197205 84.652191,326.642853 
M224.692856,304.843719 
	C229.391113,302.886963 234.089371,300.930206 238.787628,298.973419 
	C238.676605,298.632812 238.565598,298.292206 238.454575,297.951599 
	C235.227844,298.619446 232.001114,299.287292 228.665466,299.977692 
	C229.215195,297.227692 229.888184,295.142731 230.006607,293.026703 
	C230.351654,286.860748 226.402039,284.243073 221.131973,287.467224 
	C216.049866,290.576385 212.379822,294.870880 212.873901,301.558044 
	C213.085144,304.416931 212.604980,308.106293 216.143265,308.304077 
	C218.700516,308.446991 221.392609,306.177704 224.003311,304.998596 
	C224.003311,304.998596 223.991226,305.019928 224.692856,304.843719 
M89.489098,323.830505 
	C89.559959,323.669922 89.630821,323.509308 89.701675,323.348724 
	C89.508324,323.394745 89.314972,323.440735 89.489098,323.830505 
z"/>
<path fill="#621DEB" opacity="1.000000" stroke="none" 
	d="
M448.060120,191.102020 
	C454.241180,204.837418 447.876984,216.212128 430.092865,221.794861 
	C443.300842,223.683151 445.254791,233.222656 447.250580,242.800751 
	C447.927338,246.048569 448.799988,249.271515 449.824738,252.427399 
	C451.651581,258.053406 454.257721,258.714264 458.899353,254.952148 
	C459.556213,254.419739 460.368317,254.078918 461.534058,253.402557 
	C459.713654,258.760925 456.422058,261.356201 451.251953,261.570831 
	C446.197784,261.780670 441.713837,260.142609 440.021576,255.057983 
	C437.982605,248.931442 436.736816,242.542084 435.115051,236.274918 
	C434.574890,234.187424 434.067871,232.075928 433.314453,230.061920 
	C431.112152,224.174698 428.670044,222.514847 422.493134,222.489380 
	C419.357147,222.476440 416.221130,222.487122 412.820068,222.487122 
	C412.820068,233.053146 412.673492,243.106262 412.994049,253.144455 
	C413.037109,254.492813 415.264374,256.045105 416.797089,256.987518 
	C418.072998,257.772034 419.814392,257.799408 421.207001,259.325439 
	C411.789520,259.325439 402.372070,259.325439 391.866333,259.325439 
	C393.418427,258.388794 394.127930,257.595886 394.853943,257.580475 
	C400.444366,257.461670 401.826324,253.861649 401.836182,249.227844 
	C401.877197,229.908051 401.811401,210.587967 401.887177,191.268387 
	C401.911011,185.187851 399.112244,182.029083 391.795898,182.931808 
	C392.140442,182.450348 392.485016,181.968887 392.829590,181.487411 
	C393.283051,181.157654 393.738922,180.536926 394.189667,180.540619 
	C406.005737,180.637924 417.833527,180.524918 429.632416,181.051025 
	C437.036102,181.381195 443.525665,184.307251 448.060120,191.102020 
M417.143494,183.030762 
	C413.596832,183.566055 412.521820,186.251328 412.476349,189.182175 
	C412.319672,199.281570 412.416046,209.384872 412.416046,220.246719 
	C417.443024,219.897705 422.228363,219.869827 426.912231,219.166367 
	C433.365082,218.197205 437.554413,214.137665 438.424469,207.743347 
	C439.038361,203.231461 438.905548,198.441147 438.102448,193.954803 
	C436.903809,187.259171 432.062073,183.878006 425.484619,183.080002 
	C423.024078,182.781479 420.504242,182.971741 417.143494,183.030762 
z"/>
<path fill="#621DEB" opacity="1.000000" stroke="none" 
	d="
M210.358276,254.796356 
	C209.226349,256.615051 207.859543,258.078339 206.249298,259.735535 
	C200.641342,259.929443 195.276810,259.929443 189.912292,259.929443 
	C189.842804,259.548615 189.773331,259.167816 189.703842,258.786987 
	C190.433182,258.363556 191.153992,257.589996 191.893219,257.571930 
	C197.879471,257.425781 198.844772,253.380539 198.853973,248.688644 
	C198.891190,229.700226 198.838928,210.711594 198.886810,191.723221 
	C198.902069,185.672821 196.766678,181.709427 188.401047,183.172821 
	C188.879868,182.597000 189.358688,182.021164 189.837509,181.445343 
	C190.303787,181.128036 190.772736,180.529999 191.235977,180.534378 
	C203.219543,180.647507 215.237671,180.307831 227.176453,181.122101 
	C241.301132,182.085434 249.490677,192.163956 246.983734,204.295837 
	C245.731125,210.357681 242.253998,214.909988 236.896744,217.883713 
	C234.202042,219.379517 231.237244,220.388779 227.616684,221.954437 
	C239.126144,223.390305 241.897629,231.659500 243.833679,240.660339 
	C244.637100,244.395493 245.495178,248.131287 246.589249,251.788757 
	C248.493484,258.154724 251.082840,258.886505 256.117798,254.720856 
	C256.672546,254.261856 257.359161,253.962219 258.297211,253.401993 
	C257.178131,258.279266 253.968781,260.919037 248.926529,261.522339 
	C243.648697,262.153778 238.869385,259.965118 237.082733,255.218796 
	C235.337555,250.582565 234.405777,245.638916 233.141068,240.823868 
	C232.803436,239.538437 232.558884,238.228683 232.263672,236.931915 
	C228.871643,222.031967 226.035141,221.240707 210.123398,223.166916 
	C210.123398,233.619461 210.123398,244.030197 210.358276,254.796356 
M209.181061,192.846268 
	C209.181061,201.773407 209.181061,210.700531 209.181061,219.867828 
	C213.406342,219.867828 217.060196,220.141296 220.660172,219.816940 
	C231.779755,218.815048 236.527206,212.504730 236.109192,199.661072 
	C235.752350,188.696304 230.248016,183.173172 219.349976,182.844589 
	C211.116714,182.596359 209.998276,183.597656 209.181061,192.846268 
z"/>
<path fill="#6724EC" opacity="1.000000" stroke="none" 
	d="
M269.185791,233.999268 
	C269.184387,220.003769 269.208588,206.508026 269.171997,193.012482 
	C269.149628,184.755341 269.070221,184.714325 261.171814,182.725235 
	C260.715393,182.610291 260.307922,182.301041 260.275940,181.022949 
	C278.662720,181.022949 297.049500,181.022949 315.734314,181.022949 
	C315.734314,187.324951 315.734314,193.876480 315.734314,201.900574 
	C314.240234,200.278641 313.343994,199.711975 313.081757,198.932129 
	C312.610504,197.530762 312.556702,195.994110 312.264008,194.526825 
	C310.486938,185.618271 307.792328,183.270844 298.828552,183.069397 
	C294.500641,182.972153 290.162720,182.998352 285.838043,183.177765 
	C282.124939,183.331787 279.988892,185.299713 279.987854,189.195709 
	C279.985260,198.844696 279.986969,208.493698 279.986969,218.761276 
	C284.872131,218.827316 290.293640,220.238770 293.569153,216.210114 
	C296.237213,212.928619 296.972687,208.075836 299.703308,204.055984 
	C299.703308,214.663528 299.703308,225.271088 299.703308,235.878632 
	C299.472656,235.968460 299.241974,236.058289 299.011322,236.148117 
	C297.397186,231.917297 296.870789,226.451477 293.863312,223.802643 
	C290.849091,221.147888 285.358643,221.304596 279.891693,219.969803 
	C279.891693,228.654739 279.890930,236.077240 279.891876,243.499741 
	C279.893646,257.293243 279.894043,257.293365 293.615326,257.280914 
	C294.781616,257.279846 295.948151,257.290070 297.114136,257.269104 
	C309.310822,257.049835 312.908020,253.883347 314.948090,241.727768 
	C315.199280,240.230972 315.848236,238.800949 316.312866,237.339981 
	C316.811890,237.434937 317.310913,237.529892 317.809937,237.624847 
	C317.809937,244.835373 317.809937,252.045883 317.809937,259.633179 
	C299.002960,259.633179 279.683441,259.633179 260.363892,259.633179 
	C260.250946,259.301514 260.138000,258.969879 260.025055,258.638214 
	C261.027618,258.214294 262.010406,257.485229 263.036163,257.418610 
	C267.800507,257.109253 269.185303,254.221985 269.150360,249.993362 
	C269.107666,244.829056 269.169281,239.663910 269.185791,233.999268 
z"/>
<path fill="#631EEC" opacity="1.000000" stroke="none" 
	d="
M335.525909,238.993927 
	C335.525940,225.164185 335.691711,211.830292 335.457367,198.503433 
	C335.335175,191.556412 338.517426,182.498032 325.329712,182.273773 
	C325.740356,181.848892 326.151031,181.424026 326.561676,180.999146 
	C344.975037,180.999146 363.388397,180.999146 381.981079,180.999146 
	C381.981079,187.321320 381.981079,193.889816 381.981079,200.458328 
	C381.563110,200.604477 381.145142,200.750641 380.727173,200.896790 
	C380.166412,199.725342 379.295135,198.604919 379.092987,197.374557 
	C377.083374,185.142471 374.719513,183.051880 362.518341,183.020630 
	C359.518982,183.012955 356.515930,182.947220 353.520996,183.067657 
	C347.898987,183.293716 346.220001,184.737640 346.112396,190.220718 
	C345.929626,199.535004 346.062164,208.855484 346.062164,218.713791 
	C350.965851,218.898071 356.417572,220.313324 359.707855,216.356201 
	C362.466309,213.038635 363.253448,208.081985 364.913452,203.851059 
	C365.314972,203.926605 365.716492,204.002167 366.118011,204.077713 
	C366.118011,214.565643 366.118011,225.053574 366.118011,236.228012 
	C365.334747,235.559082 364.389374,235.111404 364.060791,234.384796 
	C363.595276,233.355362 363.590881,232.119095 363.378387,230.973267 
	C361.916229,223.090302 360.051056,221.425461 352.221252,221.109283 
	C350.397217,221.035629 348.567688,221.098404 346.324188,221.098404 
	C346.324188,231.679642 346.110931,242.109268 346.549957,252.511368 
	C346.617188,254.104599 349.595551,256.728973 351.398285,256.883453 
	C357.342346,257.392761 363.403931,257.395416 369.346863,256.825592 
	C376.168152,256.171570 379.362488,251.962234 380.942261,243.215530 
	C381.292694,241.275223 381.826202,239.367981 382.275391,237.445526 
	C382.816223,237.501022 383.357056,237.556534 383.897888,237.612030 
	C383.897888,244.884613 383.897888,252.157181 383.897888,259.724731 
	C365.167023,259.724731 345.951752,259.724731 325.629730,259.724731 
	C327.055603,258.587646 327.678528,257.659210 328.321747,257.644989 
	C334.511810,257.507904 335.585846,253.497391 335.513977,248.490906 
	C335.470917,245.492172 335.518707,242.492126 335.525909,238.993927 
z"/>
<path fill="#6521EC" opacity="1.000000" stroke="none" 
	d="
M121.632896,259.648254 
	C122.010506,256.294891 122.838638,253.005051 123.716599,249.347931 
	C132.801254,225.886536 141.836090,202.792419 150.870926,179.698318 
	C151.344193,179.715469 151.817444,179.732620 152.290695,179.749771 
	C152.979797,181.328125 153.725647,182.884415 154.349396,184.488205 
	C161.939560,204.004166 169.469528,223.543655 177.113708,243.038391 
	C179.482956,249.080597 180.582642,256.053192 187.733093,259.449280 
	C178.995361,259.449280 170.257629,259.449280 161.519913,259.449280 
	C161.397446,259.162537 161.274994,258.875763 161.152542,258.589020 
	C162.337524,258.155670 163.493011,257.481689 164.712769,257.332245 
	C169.131195,256.790894 169.845001,254.106522 168.612381,250.547867 
	C166.491394,244.424423 164.280365,238.323395 161.793777,232.343262 
	C161.333405,231.236084 159.413803,230.111237 158.134933,230.072342 
	C150.979752,229.854782 143.810837,229.851990 136.656174,230.078125 
	C135.403580,230.117737 133.560654,231.323166 133.079025,232.453903 
	C131.064758,237.182800 129.193588,242.010590 127.780220,246.948196 
	C125.862450,253.647888 127.442734,255.899353 134.297043,257.485474 
	C135.186935,257.691437 136.034882,258.078613 136.902267,258.381866 
	C136.875809,258.825165 136.849350,259.268494 136.822906,259.711823 
	C131.909744,259.711823 126.996574,259.711823 121.632896,259.648254 
M141.839752,209.302826 
	C139.545059,215.272476 137.250381,221.242111 134.873260,227.426193 
	C143.551834,227.426193 151.564423,227.426193 160.109116,227.426193 
	C155.952499,216.339645 151.965622,205.705826 147.665833,194.237442 
	C145.550690,199.639740 143.804459,204.099792 141.839752,209.302826 
z"/>
<path fill="#6521EC" opacity="1.000000" stroke="none" 
	d="
M91.499496,258.229767 
	C91.055725,259.147491 90.202026,260.084808 89.088531,261.131775 
	C60.947815,264.654327 44.811668,244.679718 47.388409,215.178055 
	C48.125320,206.741028 50.745007,198.916382 55.942787,192.082626 
	C66.687546,177.955963 86.136124,174.580521 101.024109,184.272125 
	C106.264137,187.683228 106.263351,187.682938 108.541153,181.573044 
	C108.772026,180.953735 109.020012,180.340820 109.260063,179.724930 
	C109.644821,179.935760 110.029579,180.146576 110.414345,180.357407 
	C110.644188,181.203430 111.073303,182.049652 111.072479,182.895447 
	C111.065613,189.891632 111.017319,196.888565 110.863327,203.882675 
	C110.846161,204.662613 110.091278,205.426285 109.678528,206.197510 
	C109.085533,205.580200 108.245476,205.060257 107.955215,204.323669 
	C107.473755,203.101883 107.335892,201.742783 107.070656,200.438004 
	C104.764877,189.095200 97.824783,182.571091 86.533058,181.137100 
	C76.306122,179.838333 67.957504,184.370163 63.512344,194.838821 
	C56.647930,211.004974 56.386806,227.638855 62.918407,243.934555 
	C67.983994,256.572693 77.803566,261.144043 91.499496,258.229767 
z"/>
<path fill="#F1EDF4" opacity="1.000000" stroke="none" 
	d="
M301.030914,294.041687 
	C302.315918,290.960266 303.420441,287.813354 305.107056,285.017639 
	C306.769562,282.261780 309.311401,280.685638 311.584961,284.416962 
	C313.133911,286.959045 319.117554,287.004486 315.857086,292.647003 
	C315.332886,293.279724 315.147034,293.514893 314.921875,294.180298 
	C314.013153,296.361816 313.162201,298.166107 312.505249,300.038422 
	C311.400574,303.186798 312.380219,304.721405 315.783661,303.553772 
	C320.844879,301.817352 325.658142,299.645081 328.363037,294.176086 
	C329.805939,294.083496 330.861938,294.075012 331.940735,294.393860 
	C331.968536,295.154297 331.973572,295.587433 331.989563,296.009888 
	C332.000519,295.999207 332.020782,295.976288 331.670959,295.974426 
	C329.876190,297.654755 328.431274,299.336945 326.994019,301.010010 
	C327.001678,301.000916 327.021759,300.988190 326.669861,300.823120 
	C323.102356,302.337341 320.018250,304.375977 316.640381,305.612000 
	C311.534698,307.480286 308.753998,304.848267 310.300903,299.614319 
	C311.346008,296.078094 313.177399,292.774261 314.858276,288.903137 
	C312.518616,288.903137 310.620087,288.903137 308.523712,288.903137 
	C308.899353,287.385895 309.177307,286.263184 309.455292,285.140442 
	C308.925781,284.928040 308.396240,284.715668 307.866730,284.503265 
	C306.949249,286.666473 306.031738,288.829712 305.020203,291.239624 
	C304.946472,291.661163 304.966797,291.836029 304.993835,292.005157 
	C305.000488,291.999420 305.012817,291.986572 304.731262,292.016235 
	C304.296814,292.366791 304.143921,292.687683 303.995605,293.004150 
	C304.000214,292.999756 304.009308,292.990051 303.729370,293.018188 
	C303.298584,293.365234 303.147705,293.684113 302.998413,294.001465 
	C303.000000,294.000000 303.003723,293.996002 302.702393,293.964203 
	C302.018433,294.057465 301.635773,294.182526 301.253113,294.307617 
	C301.253113,294.307617 301.105377,294.130005 301.030914,294.041687 
z"/>
<path fill="#F1EDF4" opacity="1.000000" stroke="none" 
	d="
M337.028137,294.294037 
	C331.864746,302.212280 324.489197,307.590851 315.845001,310.704254 
	C308.997559,313.170471 303.907471,307.648438 305.373901,300.324341 
	C305.555054,299.419586 305.627289,298.493073 305.817627,297.071564 
	C303.474548,298.212891 301.630615,299.111053 299.424988,300.036865 
	C299.063263,300.064514 298.881042,299.883820 298.855377,299.608307 
	C298.829712,299.332794 298.980103,298.968262 299.286163,298.835754 
	C300.729401,297.134155 301.866577,295.565094 303.003723,293.996002 
	C303.003723,293.996002 303.000000,294.000000 303.297882,294.008820 
	C303.733612,293.675110 303.871460,293.332581 304.009308,292.990051 
	C304.009308,292.990051 304.000214,292.999756 304.291351,293.000610 
	C304.725952,292.663147 304.869385,292.324860 305.012817,291.986572 
	C305.012817,291.986572 305.000488,291.999420 305.251068,292.089294 
	C305.668488,292.110413 305.835297,292.041626 306.386993,291.930847 
	C308.003632,291.987732 309.235382,292.086639 310.438110,292.183228 
	C309.291534,295.644226 307.956604,298.708618 307.290771,301.912048 
	C306.316101,306.601410 309.797821,310.334686 314.174805,308.666595 
	C318.765747,306.916962 322.764313,303.612915 327.021759,300.988190 
	C327.021759,300.988190 327.001678,301.000916 327.340515,301.005127 
	C329.126495,299.331635 330.573639,297.653961 332.020813,295.976288 
	C332.020782,295.976288 332.000519,295.999207 332.309814,296.074463 
	C333.231323,295.563110 333.843536,294.976532 334.773987,294.311249 
	C335.737518,294.253052 336.382812,294.273560 337.028137,294.294037 
M306.405975,295.483490 
	C306.405975,295.483490 306.523193,295.411865 306.405975,295.483490 
z"/>
<path fill="#7437ED" opacity="1.000000" stroke="none" 
	d="
M337.489136,294.217224 
	C336.382812,294.273560 335.737518,294.253052 334.357025,294.203094 
	C333.053894,294.137939 332.485901,294.102234 331.917938,294.066559 
	C330.861938,294.075012 329.805939,294.083496 327.906067,294.108734 
	C323.063782,294.028229 319.065338,293.930939 315.066895,293.833649 
	C315.147034,293.514893 315.332886,293.279724 315.818542,293.003723 
	C353.704498,292.919403 391.396362,292.959564 429.657837,293.248383 
	C430.210419,293.676025 430.193390,293.854980 430.176361,294.033936 
	C399.434296,294.069427 368.692230,294.104889 337.489136,294.217224 
z"/>
<path fill="#6A29EC" opacity="1.000000" stroke="none" 
	d="
M106.598679,254.026749 
	C107.177345,252.498825 108.090401,251.119339 109.001846,249.370544 
	C109.000244,249.001205 109.051498,249.050964 109.051498,249.050964 
	C109.468987,249.062119 109.886482,249.073257 110.628868,249.093018 
	C110.953766,252.659119 110.953766,256.216614 110.953766,259.774078 
	C110.537994,259.945740 110.122223,260.117371 109.706451,260.289001 
	C108.781990,258.251068 107.857536,256.213135 106.598679,254.026749 
z"/>
<path fill="#6E2FED" opacity="1.000000" stroke="none" 
	d="
M111.045212,240.551300 
	C109.793938,241.801697 108.482010,242.612961 106.813248,243.220856 
	C107.252403,239.595459 108.048386,236.173401 108.844368,232.751358 
	C109.557762,232.874268 110.271164,232.997192 110.984558,233.120102 
	C110.984558,235.450790 110.984558,237.781464 111.045212,240.551300 
z"/>
<path fill="#F1EDF4" opacity="1.000000" stroke="none" 
	d="
M430.338074,293.923462 
	C430.193390,293.854980 430.210419,293.676025 430.128326,293.246399 
	C430.186066,293.268158 430.342957,293.540588 430.338074,293.923462 
z"/>
<path fill="#9662FE" opacity="1.000000" stroke="none" 
	d="
M224.024582,304.984222 
	C221.392609,306.177704 218.700516,308.446991 216.143265,308.304077 
	C212.604980,308.106293 213.085144,304.416931 212.873901,301.558044 
	C212.379822,294.870880 216.049866,290.576385 221.131973,287.467224 
	C226.402039,284.243073 230.351654,286.860748 230.006607,293.026703 
	C229.888184,295.142731 229.215195,297.227692 228.665466,299.977692 
	C232.001114,299.287292 235.227844,298.619446 238.454575,297.951599 
	C238.565598,298.292206 238.676605,298.632812 238.787628,298.973419 
	C234.089371,300.930206 229.391113,302.886963 224.113205,304.634705 
	C221.166992,303.283691 218.800430,302.141724 216.079865,300.828949 
	C215.679184,305.642731 217.442810,306.673889 220.830978,305.721985 
	C221.881668,305.426819 222.959290,305.227448 224.024582,304.984222 
M227.759109,295.230042 
	C226.806366,293.189697 225.853622,291.149323 224.900864,289.108978 
	C222.628143,291.291656 220.241913,293.381531 218.262222,295.803680 
	C218.069046,296.040070 220.127823,298.896515 221.582520,299.541168 
	C224.804688,300.969147 226.981720,299.588501 227.759109,295.230042 
z"/>
<path fill="#9864FE" opacity="1.000000" stroke="none" 
	d="
M109.022606,249.030334 
	C108.292747,249.096893 107.164925,248.826492 106.844353,249.217667 
	C101.625771,255.585526 96.019012,261.718384 91.552803,268.588776 
	C88.848114,272.749329 90.926025,275.362122 95.931770,275.893341 
	C97.535522,276.063507 99.151375,276.119568 100.761696,276.227814 
	C101.025421,276.650238 101.289139,277.072662 101.552864,277.495056 
	C99.762428,279.105927 97.971992,280.716766 95.664017,282.226685 
	C95.011070,281.990814 94.875664,281.855927 94.740219,281.721008 
	C95.839966,281.008026 96.939743,280.295105 98.154671,279.507507 
	C97.014641,278.606323 96.790695,278.274261 96.546432,278.258606 
	C87.517014,277.678925 85.663116,274.570435 89.780510,266.439514 
	C94.391251,257.334320 100.951416,249.858078 109.951912,244.978073 
	C112.418945,243.640472 116.788155,242.736145 118.549942,244.017624 
	C120.397148,245.361282 121.027435,249.693680 120.629730,252.498703 
	C120.037079,256.678650 118.341621,260.784698 116.579430,264.679718 
	C115.763885,266.482361 113.683121,267.712585 111.668655,269.703796 
	C114.191376,263.562836 116.760910,258.574615 118.179909,253.278198 
	C118.816002,250.903931 117.147659,247.912277 116.525055,245.200790 
	C113.936081,246.246017 111.347099,247.291229 108.904816,248.693710 
	C109.051498,249.050964 109.000244,249.001205 109.022606,249.030334 
z"/>
<path fill="#9865FD" opacity="1.000000" stroke="none" 
	d="
M151.851685,316.720520 
	C156.113937,308.654846 160.367126,300.584351 164.653885,292.531677 
	C165.039948,291.806519 165.505554,290.954224 166.170288,290.577850 
	C168.366623,289.334290 170.671265,288.282043 172.934326,287.156342 
	C173.420502,289.725952 174.519699,292.363922 174.242493,294.848358 
	C173.869705,298.189819 172.434952,301.412842 171.117584,305.818512 
	C175.730591,303.568298 179.463943,301.747192 183.853058,299.606171 
	C179.997711,304.685181 166.463043,311.168671 162.376923,309.785095 
	C170.381805,305.325623 171.404236,298.018616 171.095993,290.031036 
	C162.477112,297.431091 158.331268,307.705872 152.840698,317.516083 
	C152.233871,317.351715 152.042770,317.036133 151.851685,316.720520 
z"/>
<path fill="#F3EFF6" opacity="1.000000" stroke="none" 
	d="
M210.008545,259.460510 
	C210.008545,259.460510 210.320511,259.170898 210.754471,259.298218 
	C211.802536,258.947601 212.416641,258.469635 213.030746,257.991699 
	C213.030746,257.991699 213.000092,257.998169 213.372498,257.975708 
	C215.005447,257.634796 216.265976,257.316345 218.228348,256.820557 
	C216.661163,266.414520 210.759262,272.391754 205.716705,279.183105 
	C204.606659,280.913971 203.794418,282.467926 202.982162,284.021881 
	C202.982162,284.021881 203.002502,284.002228 202.676605,283.792572 
	C201.003311,284.267181 199.655899,284.951447 198.308502,285.635712 
	C197.936005,285.362885 197.563492,285.090057 197.190994,284.817230 
	C200.820312,277.924744 204.449631,271.032257 208.390442,263.904480 
	C209.137482,262.266296 209.573013,260.863403 210.008545,259.460510 
z"/>
<path fill="#9560FE" opacity="1.000000" stroke="none" 
	d="
M208.078964,264.139771 
	C204.449631,271.032257 200.820312,277.924744 197.190994,284.817230 
	C197.563492,285.090057 197.936005,285.362885 198.308502,285.635712 
	C199.655899,284.951447 201.003311,284.267181 202.686493,283.782471 
	C201.146912,286.036285 199.182831,288.018433 197.430634,290.172913 
	C196.435455,291.396545 195.349045,292.814545 195.052567,294.294983 
	C192.881073,305.137421 195.634399,307.535095 206.219543,304.233673 
	C204.369843,307.460358 199.989853,309.715607 196.765198,308.877045 
	C192.829742,307.853607 192.021103,304.714325 191.857712,301.172607 
	C191.292755,288.927155 197.411118,278.951813 202.869278,268.766907 
	C203.880478,266.880035 205.294083,265.208862 207.015839,263.358215 
	C207.699463,263.565430 207.889221,263.852600 208.078964,264.139771 
z"/>
<path fill="#9662FE" opacity="1.000000" stroke="none" 
	d="
M271.644684,297.847626 
	C274.921814,294.319550 277.889862,290.410797 281.591400,287.405396 
	C283.831238,285.586761 287.183655,285.082306 290.111755,284.254700 
	C290.402802,284.172455 291.910553,286.505951 291.686584,286.786377 
	C289.695831,289.279541 287.591278,291.733521 285.195038,293.826691 
	C284.186035,294.708099 282.415680,294.935669 280.959778,295.047089 
	C276.526581,295.386261 276.006165,298.560608 276.256317,301.812714 
	C276.527588,305.338898 279.277710,306.875702 282.331055,305.966248 
	C286.388306,304.757812 290.182587,302.666565 294.610229,301.055298 
	C295.267548,301.292816 295.404510,301.429657 295.541504,301.566528 
	C292.852112,303.419403 290.350830,305.668182 287.438538,307.051849 
	C278.225403,311.429169 274.016357,308.692505 273.050751,298.218842 
	C272.121887,297.919037 271.883301,297.883331 271.644684,297.847626 
M280.614746,291.042877 
	C280.536530,291.493347 280.350037,292.326935 280.395477,292.339752 
	C283.969604,293.349884 288.132568,290.346466 288.663940,285.142120 
	C285.654236,287.260956 283.357666,288.877747 280.614746,291.042877 
z"/>
<path fill="#9865FD" opacity="1.000000" stroke="none" 
	d="
M119.902855,293.815033 
	C121.080956,291.766449 122.259056,289.717865 123.437157,287.669281 
	C123.693260,287.786591 123.949371,287.903900 124.205475,288.021210 
	C124.205475,291.216248 124.205475,294.411316 124.790543,297.885925 
	C125.661507,298.346130 125.854485,298.597992 125.954544,298.921051 
	C123.449448,302.234314 124.804062,306.003326 129.053955,305.849060 
	C133.184006,305.699188 137.334076,304.093475 141.316925,302.680481 
	C143.547195,301.889282 145.455917,300.191681 148.081436,298.543457 
	C143.039490,309.058014 127.662346,311.539215 121.228554,303.362122 
	C118.722572,305.630676 116.225845,307.890869 113.729111,310.151062 
	C113.299950,309.745941 112.870781,309.340820 112.441620,308.935699 
	C113.999535,307.335327 115.384941,305.503418 117.153435,304.185699 
	C120.258011,301.872437 121.915321,299.200500 120.325615,294.792358 
	C119.958694,294.147095 119.930771,293.981049 119.902855,293.815033 
z"/>
<path fill="#9865FD" opacity="1.000000" stroke="none" 
	d="
M159.893280,288.120605 
	C156.067017,297.589264 152.333099,306.948822 148.657867,316.331421 
	C147.393021,319.560455 146.274536,322.846802 144.958405,326.780731 
	C145.263458,329.049133 145.699280,330.643768 146.135101,332.238403 
	C145.268448,333.882996 144.401825,335.527618 143.535187,337.172241 
	C142.951096,337.036957 142.367004,336.901672 141.782928,336.766388 
	C141.992462,334.235321 141.750397,331.563019 142.489990,329.197662 
	C145.636078,319.135681 149.072922,309.164642 152.598145,298.589935 
	C152.751236,297.778290 152.709793,297.537079 152.668350,297.295898 
	C152.356247,297.437714 152.044159,297.579529 151.732071,297.721375 
	C151.403625,297.848328 151.075180,297.975250 150.314651,297.997955 
	C149.755493,297.782501 149.628433,297.671326 149.501373,297.560181 
	C152.716141,294.468414 155.930893,291.376648 159.465271,288.258759 
	C159.784897,288.232635 160.008636,288.020538 159.893280,288.120605 
z"/>
<path fill="#9864FE" opacity="1.000000" stroke="none" 
	d="
M83.964966,326.786194 
	C81.532379,327.197205 79.098953,327.953674 76.667366,327.947815 
	C71.476143,327.935303 68.461250,324.741425 68.196907,319.501770 
	C67.744812,310.540436 81.384514,289.805725 91.029305,285.995697 
	C87.385086,290.141663 84.025375,293.279175 81.511215,296.989624 
	C78.005844,302.162964 74.491547,307.515503 72.249695,313.284363 
	C71.065163,316.332458 71.335098,321.454468 73.235497,323.730438 
	C74.847618,325.661163 79.744537,324.849152 83.587082,325.482178 
	C83.979118,326.071136 83.972046,326.428650 83.964966,326.786194 
z"/>
<path fill="#9864FE" opacity="1.000000" stroke="none" 
	d="
M268.276245,302.299286 
	C264.572205,304.432312 261.075470,307.152313 257.112396,308.551880 
	C251.992722,310.359985 248.694809,306.966217 249.675247,301.588440 
	C249.971085,299.965729 250.488083,298.370392 251.041718,296.811462 
	C251.534821,295.423065 252.218597,294.102448 253.018326,292.301239 
	C250.986084,292.075439 249.284531,291.886414 246.690308,291.598175 
	C247.993439,289.067993 249.136032,286.849518 250.278610,284.631042 
	C250.723068,284.815094 251.167511,284.999115 251.611954,285.183167 
	C251.476074,286.340881 251.340210,287.498596 251.191650,288.764374 
	C253.165436,288.914307 254.925766,289.048035 256.971405,289.203461 
	C255.413971,292.842773 253.714523,296.081787 252.689987,299.521790 
	C252.189636,301.201813 252.281693,303.932007 253.319489,304.953064 
	C254.377502,305.993988 257.104156,306.100006 258.779938,305.581055 
	C261.590607,304.710663 264.147308,303.020081 267.337677,301.780853 
	C268.001740,302.024506 268.139008,302.161896 268.276245,302.299286 
z"/>
<path fill="#9B69FD" opacity="1.000000" stroke="none" 
	d="
M206.014496,279.006165 
	C210.759262,272.391754 216.661163,266.414520 218.228348,256.820557 
	C216.265976,257.316345 215.005447,257.634796 213.366516,257.990173 
	C214.805771,256.855682 216.623413,255.684280 218.441071,254.512909 
	C218.836853,256.453278 220.193283,258.920868 219.466492,260.245178 
	C215.813416,266.901886 211.616135,273.259888 207.209930,279.663269 
	C206.544769,279.404572 206.279633,279.205353 206.014496,279.006165 
z"/>
<path fill="#9B69FD" opacity="1.000000" stroke="none" 
	d="
M146.382172,331.986084 
	C145.699280,330.643768 145.263458,329.049133 144.959396,327.142487 
	C147.180176,323.631104 149.269196,320.431732 151.604950,316.976440 
	C152.042770,317.036133 152.233871,317.351715 152.658539,317.816620 
	C150.804489,322.555176 148.716873,327.144470 146.382172,331.986084 
z"/>
<path fill="#A375FC" opacity="1.000000" stroke="none" 
	d="
M126.253120,298.808105 
	C125.854485,298.597992 125.661507,298.346130 125.155983,298.062439 
	C126.934883,296.557465 128.933411,295.155518 131.419479,293.830536 
	C131.907028,293.907501 132.230545,294.225647 132.230560,294.225647 
	C131.521820,294.915405 130.813080,295.605164 129.968964,296.558838 
	C129.833572,296.822723 129.850449,296.988342 129.813751,296.909607 
	C128.701935,297.452301 127.626816,298.073700 126.253120,298.808105 
z"/>
<path fill="#AA81FB" opacity="1.000000" stroke="none" 
	d="
M302.702393,293.964203 
	C301.866577,295.565094 300.729401,297.134155 299.178833,298.610901 
	C298.551910,298.248199 298.279816,298.064484 297.949158,297.967438 
	C298.922455,296.907227 299.895782,295.846985 301.061096,294.547180 
	C301.635773,294.182526 302.018433,294.057465 302.702393,293.964203 
z"/>
<path fill="#9864FE" opacity="1.000000" stroke="none" 
	d="
M271.351868,297.948700 
	C271.883301,297.883331 272.121887,297.919037 272.720459,297.993408 
	C271.676453,299.369629 270.272461,300.707123 268.572357,302.171967 
	C268.139008,302.161896 268.001740,302.024506 267.669006,301.665100 
	C268.668701,300.311951 269.863892,299.180847 271.351868,297.948700 
z"/>
<path fill="#9560FE" opacity="1.000000" stroke="none" 
	d="
M205.716705,279.183105 
	C206.279633,279.205353 206.544769,279.404572 206.918945,279.831665 
	C205.893387,281.342194 204.758789,282.624786 203.303192,283.964630 
	C203.794418,282.467926 204.606659,280.913971 205.716705,279.183105 
z"/>
<path fill="#9864FE" opacity="1.000000" stroke="none" 
	d="
M95.334541,282.342102 
	C94.213318,283.758270 92.904037,284.957977 91.594757,286.157715 
	C91.270699,285.821136 90.946632,285.484558 90.622574,285.147980 
	C91.782913,284.088715 92.943253,283.029480 94.421921,281.845642 
	C94.875664,281.855927 95.011070,281.990814 95.334541,282.342102 
z"/>
<path fill="#A375FC" opacity="1.000000" stroke="none" 
	d="
M84.308578,326.714539 
	C83.972046,326.428650 83.979118,326.071136 83.982246,325.445465 
	C85.222382,324.733398 86.466461,324.289429 87.710548,323.845459 
	C87.863525,324.210205 88.016502,324.574921 88.169479,324.939667 
	C86.997055,325.507385 85.824623,326.075104 84.308578,326.714539 
z"/>
<path fill="#9B69FD" opacity="1.000000" stroke="none" 
	d="
M208.390472,263.904480 
	C207.889221,263.852600 207.699463,263.565430 207.281250,263.153595 
	C207.869995,261.988373 208.687195,260.947815 209.756470,259.683899 
	C209.573013,260.863403 209.137482,262.266296 208.390472,263.904480 
z"/>
<path fill="#A375FC" opacity="1.000000" stroke="none" 
	d="
M99.206863,315.102539 
	C99.575249,315.083588 99.916588,314.995239 100.677460,315.002502 
	C101.096992,315.098145 101.425919,315.424133 101.425919,315.424133 
	C100.561348,316.300476 99.696785,317.176819 98.372406,317.986755 
	C97.912598,317.920288 97.577339,317.598907 97.577332,317.598907 
	C98.032295,316.969116 98.487259,316.339325 99.062927,315.443512 
	C99.183647,315.177490 99.179810,315.033081 99.206863,315.102539 
z"/>
<path fill="#A375FC" opacity="1.000000" stroke="none" 
	d="
M136.714569,290.647766 
	C137.804581,290.017517 138.894608,289.387238 139.984619,288.756989 
	C140.168076,289.059021 140.351532,289.361023 140.534988,289.663055 
	C139.634857,290.142548 138.734741,290.622070 137.383850,291.010132 
	C136.933090,290.918701 136.714584,290.647797 136.714569,290.647766 
z"/>
<path fill="#A375FC" opacity="1.000000" stroke="none" 
	d="
M132.753510,292.755035 
	C133.866714,292.105408 134.979904,291.455750 136.403839,290.726959 
	C136.714584,290.647797 136.933090,290.918701 137.047440,291.051758 
	C136.111176,291.867737 135.060562,292.550629 133.538483,293.149719 
	C133.067047,293.065918 132.753510,292.755035 132.753510,292.755035 
z"/>
<path fill="#A375FC" opacity="1.000000" stroke="none" 
	d="
M94.234207,321.249542 
	C93.373215,321.858917 92.512222,322.468262 91.651230,323.077637 
	C91.440575,322.856842 91.229919,322.636017 91.019272,322.415222 
	C91.646454,321.859711 92.273628,321.304199 93.394333,320.829895 
	C93.887856,320.911133 94.234207,321.249542 94.234207,321.249542 
z"/>
<path fill="#A375FC" opacity="1.000000" stroke="none" 
	d="
M93.714096,320.742523 
	C94.252518,320.171600 94.964699,319.769257 95.676872,319.366943 
	C95.393494,319.923157 95.110123,320.479401 94.530472,321.142578 
	C94.234207,321.249542 93.887856,320.911133 93.714096,320.742523 
z"/>
<path fill="#A375FC" opacity="1.000000" stroke="none" 
	d="
M110.749001,304.754974 
	C111.204933,304.136932 111.660866,303.518860 112.521652,302.912903 
	C112.926498,302.925018 113.198921,303.187592 113.198914,303.187592 
	C112.753189,303.815704 112.307472,304.443817 111.448273,305.054077 
	C111.034790,305.036194 110.749001,304.754974 110.749001,304.754974 
z"/>
<path fill="#9662FE" opacity="1.000000" stroke="none" 
	d="
M297.712067,298.086914 
	C298.279816,298.064484 298.551910,298.248199 298.872772,298.743408 
	C298.980103,298.968262 298.829712,299.332794 298.764008,299.518188 
	C298.374939,299.836121 298.051575,299.968628 297.294434,299.965393 
	C296.732361,299.697235 296.604065,299.564850 296.475769,299.432465 
	C296.808838,299.023773 297.141907,298.615051 297.712067,298.086914 
z"/>
<path fill="#A375FC" opacity="1.000000" stroke="none" 
	d="
M101.805679,313.816681 
	C102.398087,313.602448 102.990494,313.388214 103.582901,313.174011 
	C103.387566,313.523407 103.192230,313.872833 102.559349,314.171082 
	C102.121803,314.119965 101.805687,313.816681 101.805679,313.816681 
z"/>
<path fill="#9B69FD" opacity="1.000000" stroke="none" 
	d="
M212.671173,257.856262 
	C212.416641,258.469635 211.802536,258.947601 210.824112,259.217163 
	C211.077072,258.579498 211.694336,258.150177 212.671173,257.856262 
z"/>
<path fill="#9662FE" opacity="1.000000" stroke="none" 
	d="
M294.938416,300.938232 
	C295.159851,300.365112 295.573517,300.009766 296.231476,299.543457 
	C296.604065,299.564850 296.732361,299.697235 297.042450,300.039215 
	C296.823883,300.612305 296.423523,300.975861 295.782349,301.452972 
	C295.404510,301.429657 295.267548,301.292816 294.938416,300.938232 
z"/>
<path fill="#A375FC" opacity="1.000000" stroke="none" 
	d="
M119.288101,295.367462 
	C119.057060,295.859833 118.826012,296.352173 118.250977,296.872375 
	C117.906990,296.900238 117.695267,296.667938 117.695267,296.667938 
	C117.933098,296.167511 118.170921,295.667084 118.751534,295.143097 
	C119.094322,295.119568 119.288109,295.367462 119.288101,295.367462 
z"/>
<path fill="#A375FC" opacity="1.000000" stroke="none" 
	d="
M115.326157,300.345886 
	C115.083893,300.842957 114.841621,301.340027 114.241737,301.857727 
	C113.884117,301.878326 113.648903,301.626373 113.648895,301.626373 
	C113.902023,301.138062 114.155151,300.649780 114.758698,300.137329 
	C115.109108,300.113190 115.326157,300.345886 115.326157,300.345886 
z"/>
<path fill="#A375FC" opacity="1.000000" stroke="none" 
	d="
M105.841988,309.858521 
	C105.946320,309.533447 106.135170,309.268646 106.772141,309.105408 
	C107.135742,309.146667 107.432014,309.446869 107.432014,309.446869 
	C107.326630,309.771698 107.134689,310.032959 106.492981,310.182709 
	C106.129768,310.134735 105.841988,309.858521 105.841988,309.858521 
z"/>
<path fill="#A375FC" opacity="1.000000" stroke="none" 
	d="
M89.305359,323.658630 
	C89.314972,323.440735 89.508324,323.394745 89.701675,323.348724 
	C89.630821,323.509308 89.559959,323.669922 89.305359,323.658630 
z"/>
<path fill="#A375FC" opacity="1.000000" stroke="none" 
	d="
M131.748398,293.745300 
	C131.764465,293.297943 132.003357,293.084717 132.529999,292.849243 
	C132.753510,292.755035 133.067047,293.065918 133.225861,293.224182 
	C133.213791,293.670319 132.977966,293.887817 132.453888,294.130310 
	C132.230545,294.225647 131.907028,293.907501 131.748398,293.745300 
z"/>
<path fill="#A375FC" opacity="1.000000" stroke="none" 
	d="
M98.075050,318.086182 
	C97.884956,318.389496 97.532410,318.526886 97.179855,318.664276 
	C97.175461,318.429016 97.171074,318.193787 97.372009,317.778717 
	C97.577339,317.598907 97.912598,317.920288 98.075050,318.086182 
z"/>
<path fill="#A375FC" opacity="1.000000" stroke="none" 
	d="
M119.664803,293.915771 
	C119.930771,293.981049 119.958694,294.147095 120.000862,294.564087 
	C120.015114,294.815033 119.709358,295.168976 119.498734,295.268219 
	C119.288109,295.367462 119.094322,295.119568 118.992218,294.998932 
	C119.068985,294.591034 119.247864,294.303772 119.664803,293.915771 
z"/>
<path fill="#A375FC" opacity="1.000000" stroke="none" 
	d="
M100.935852,314.931824 
	C100.907295,314.464752 101.108818,314.220947 101.592484,313.925385 
	C101.805687,313.816681 102.121803,314.119965 102.276474,314.280640 
	C102.274170,314.721436 102.067642,314.958374 101.618736,315.288116 
	C101.425919,315.424133 101.096992,315.098145 100.935852,314.931824 
z"/>
<path fill="#A375FC" opacity="1.000000" stroke="none" 
	d="
M106.266541,310.279877 
	C106.085594,310.576263 105.767876,310.727509 105.450150,310.878723 
	C105.441010,310.639374 105.431854,310.400024 105.632347,310.009583 
	C105.841988,309.858521 106.129768,310.134735 106.266541,310.279877 
z"/>
<path fill="#A375FC" opacity="1.000000" stroke="none" 
	d="
M108.416054,308.434540 
	C108.299385,308.746613 108.105469,308.999359 107.633156,309.319824 
	C107.432014,309.446869 107.135742,309.146667 106.991554,308.991943 
	C106.956490,308.520538 107.143806,308.260071 107.767746,308.095917 
	C108.126190,308.135986 108.416054,308.434540 108.416054,308.434540 
z"/>
<path fill="#A375FC" opacity="1.000000" stroke="none" 
	d="
M107.983994,307.984100 
	C107.946510,307.514526 108.129005,307.250641 108.747780,307.077301 
	C109.106277,307.114105 109.395470,307.415924 109.395470,307.415924 
	C109.268959,307.720184 109.074142,307.971497 108.613541,308.302185 
	C108.416054,308.434540 108.126190,308.135986 107.983994,307.984100 
z"/>
<path fill="#A375FC" opacity="1.000000" stroke="none" 
	d="
M108.962418,306.962494 
	C108.921646,306.492340 109.102676,306.226990 109.720573,306.047668 
	C110.079506,306.080536 110.366508,306.374725 110.366508,306.374725 
	C110.245338,306.683807 110.053734,306.940277 109.593582,307.280029 
	C109.395470,307.415924 109.106277,307.114105 108.962418,306.962494 
z"/>
<path fill="#A375FC" opacity="1.000000" stroke="none" 
	d="
M111.178322,305.176147 
	C111.183617,305.611603 110.995071,305.870422 110.561371,306.233643 
	C110.366508,306.374725 110.079506,306.080536 109.935318,305.932434 
	C109.899742,305.472473 110.081055,305.211029 110.542038,304.877502 
	C110.749001,304.754974 111.034790,305.036194 111.178322,305.176147 
z"/>
<path fill="#A375FC" opacity="1.000000" stroke="none" 
	d="
M116.743011,297.742188 
	C116.831566,297.411469 117.007294,297.136444 117.482735,296.792542 
	C117.695267,296.667938 117.906990,296.900238 118.015274,297.015259 
	C118.063156,297.468658 117.904579,297.752197 117.311531,297.978638 
	C116.975227,297.976471 116.743011,297.742188 116.743011,297.742188 
z"/>
<path fill="#A375FC" opacity="1.000000" stroke="none" 
	d="
M117.091965,298.092987 
	C117.118248,298.531250 116.955406,298.810852 116.388428,299.053833 
	C116.056664,299.059357 115.821091,298.832306 115.821091,298.832306 
	C115.894905,298.497925 116.061394,298.218811 116.531784,297.868591 
	C116.743011,297.742188 116.975227,297.976471 117.091965,298.092987 
z"/>
<path fill="#9865FD" opacity="1.000000" stroke="none" 
	d="
M150.061035,298.073364 
	C149.866135,298.402771 149.492737,298.552490 149.119354,298.702209 
	C149.103851,298.449524 149.088333,298.196777 149.287109,297.752136 
	C149.628433,297.671326 149.755493,297.782501 150.061035,298.073364 
z"/>
<path fill="#A375FC" opacity="1.000000" stroke="none" 
	d="
M112.790512,302.793488 
	C112.805466,302.370636 113.002289,302.114563 113.446953,301.760071 
	C113.648903,301.626373 113.884117,301.878326 114.002670,302.004333 
	C114.043289,302.457245 113.875725,302.728851 113.408722,303.066376 
	C113.198921,303.187592 112.926498,302.925018 112.790512,302.793488 
z"/>
<path fill="#A375FC" opacity="1.000000" stroke="none" 
	d="
M116.174187,299.173157 
	C116.163048,299.591858 115.977356,299.856781 115.530396,300.213806 
	C115.326157,300.345886 115.109108,300.113190 114.999405,299.997040 
	C114.963326,299.550323 115.130783,299.277344 115.606583,298.947113 
	C115.821091,298.832306 116.056664,299.059357 116.174187,299.173157 
z"/>
<path fill="#FCFBFF" opacity="1.000000" stroke="none" 
	d="
M417.577454,182.984955 
	C420.504242,182.971741 423.024078,182.781479 425.484619,183.080002 
	C432.062073,183.878006 436.903809,187.259171 438.102448,193.954803 
	C438.905548,198.441147 439.038361,203.231461 438.424469,207.743347 
	C437.554413,214.137665 433.365082,218.197205 426.912231,219.166367 
	C422.228363,219.869827 417.443024,219.897705 412.416046,220.246719 
	C412.416046,209.384872 412.319672,199.281570 412.476349,189.182175 
	C412.521820,186.251328 413.596832,183.566055 417.577454,182.984955 
z"/>
<path fill="#FCFBFF" opacity="1.000000" stroke="none" 
	d="
M209.188156,192.390991 
	C209.998276,183.597656 211.116714,182.596359 219.349976,182.844589 
	C230.248016,183.173172 235.752350,188.696304 236.109192,199.661072 
	C236.527206,212.504730 231.779755,218.815048 220.660172,219.816940 
	C217.060196,220.141296 213.406342,219.867828 209.181061,219.867828 
	C209.181061,210.700531 209.181061,201.773407 209.188156,192.390991 
z"/>
<path fill="#F8F5FE" opacity="1.000000" stroke="none" 
	d="
M141.948990,208.931335 
	C143.804459,204.099792 145.550690,199.639740 147.665833,194.237442 
	C151.965622,205.705826 155.952499,216.339645 160.109116,227.426193 
	C151.564423,227.426193 143.551834,227.426193 134.873260,227.426193 
	C137.250381,221.242111 139.545059,215.272476 141.948990,208.931335 
z"/>
<path fill="#9865FD" opacity="1.000000" stroke="none" 
	d="
M326.669861,300.823120 
	C322.764313,303.612915 318.765747,306.916962 314.174805,308.666595 
	C309.797821,310.334686 306.316101,306.601410 307.290771,301.912048 
	C307.956604,298.708618 309.291534,295.644226 310.438110,292.183228 
	C309.235382,292.086639 308.003632,291.987732 306.286194,291.728668 
	C305.621246,291.317627 305.392517,291.125763 305.114258,290.992920 
	C306.031738,288.829712 306.949249,286.666473 307.866730,284.503265 
	C308.396240,284.715668 308.925781,284.928040 309.455292,285.140442 
	C309.177307,286.263184 308.899353,287.385895 308.523712,288.903137 
	C310.620087,288.903137 312.518616,288.903137 314.858276,288.903137 
	C313.177399,292.774261 311.346008,296.078094 310.300903,299.614319 
	C308.753998,304.848267 311.534698,307.480286 316.640381,305.612000 
	C320.018250,304.375977 323.102356,302.337341 326.669861,300.823120 
z"/>
<path fill="#FFFFFF" opacity="1.000000" stroke="none" 
	d="
M314.921875,294.180298 
	C319.065338,293.930939 323.063782,294.028229 327.519196,294.192871 
	C325.658142,299.645081 320.844879,301.817352 315.783661,303.553772 
	C312.380219,304.721405 311.400574,303.186798 312.505249,300.038422 
	C313.162201,298.166107 314.013153,296.361816 314.921875,294.180298 
z"/>
<path fill="#9865FD" opacity="1.000000" stroke="none" 
	d="
M331.670959,295.974426 
	C330.573639,297.653961 329.126495,299.331635 327.332855,301.014221 
	C328.431274,299.336945 329.876190,297.654755 331.670959,295.974426 
z"/>
<path fill="#9865FD" opacity="1.000000" stroke="none" 
	d="
M331.940735,294.393860 
	C332.485901,294.102234 333.053894,294.137939 334.038818,294.281799 
	C333.843536,294.976532 333.231323,295.563110 332.298859,296.085114 
	C331.973572,295.587433 331.968536,295.154297 331.940735,294.393860 
z"/>
<path fill="#AA81FB" opacity="1.000000" stroke="none" 
	d="
M305.020203,291.239624 
	C305.392517,291.125763 305.621246,291.317627 305.901306,291.770691 
	C305.835297,292.041626 305.668488,292.110413 305.244385,292.095032 
	C304.966797,291.836029 304.946472,291.661163 305.020203,291.239624 
z"/>
<path fill="#AA81FB" opacity="1.000000" stroke="none" 
	d="
M304.731262,292.016235 
	C304.869385,292.324860 304.725952,292.663147 304.286743,293.005005 
	C304.143921,292.687683 304.296814,292.366791 304.731262,292.016235 
z"/>
<path fill="#AA81FB" opacity="1.000000" stroke="none" 
	d="
M303.729370,293.018188 
	C303.871460,293.332581 303.733612,293.675110 303.296295,294.010315 
	C303.147705,293.684113 303.298584,293.365234 303.729370,293.018188 
z"/>
<path fill="#FFFFFF" opacity="1.000000" stroke="none" 
	d="
M306.464600,295.447693 
	C306.523193,295.411865 306.405975,295.483490 306.464600,295.447693 
z"/>
<path fill="#F5F3F6" opacity="1.000000" stroke="none" 
	d="
M227.648804,295.612976 
	C226.981720,299.588501 224.804688,300.969147 221.582520,299.541168 
	C220.127823,298.896515 218.069046,296.040070 218.262222,295.803680 
	C220.241913,293.381531 222.628143,291.291656 224.900864,289.108978 
	C225.853622,291.149323 226.806366,293.189697 227.648804,295.612976 
z"/>
<path fill="#F1EDF4" opacity="1.000000" stroke="none" 
	d="
M224.013947,304.991394 
	C222.959290,305.227448 221.881668,305.426819 220.830978,305.721985 
	C217.442810,306.673889 215.679184,305.642731 216.079865,300.828949 
	C218.800430,302.141724 221.166992,303.283691 223.762390,304.722778 
	C223.991226,305.019928 224.003311,304.998596 224.013947,304.991394 
z"/>
<path fill="#EBE4F3" opacity="1.000000" stroke="none" 
	d="
M280.837921,290.768707 
	C283.357666,288.877747 285.654236,287.260956 288.663940,285.142120 
	C288.132568,290.346466 283.969604,293.349884 280.395477,292.339752 
	C280.350037,292.326935 280.536530,291.493347 280.837921,290.768707 
z"/>
<path fill="#F1EDF4" opacity="1.000000" stroke="none" 
	d="
M151.911835,297.899841 
	C152.044159,297.579529 152.356247,297.437714 152.668350,297.295898 
	C152.709793,297.537079 152.751236,297.778290 152.633545,298.214783 
	C152.346786,298.299469 152.219193,298.188873 151.911835,297.899841 
z"/>
</svg>